<svg xmlns="http://www.w3.org/2000/svg" width="180" height="46" viewBox="0 0 180 46" fill="none">
  <mask id="path-1-inside-1_4747_1431" fill="white">
    <path fill-rule="evenodd" clip-rule="evenodd" d="M0 14.0508V32.0508L0.0507812 32L14.0508 46H166.051L180 32.0508V14.0508L166 0.0507812L166.051 0H14.0508L14.1016 0.0507812L0.0507812 14.1016L0 14.0508Z"/>
  </mask>
  <path fill-rule="evenodd" clip-rule="evenodd" d="M0 14.0508V32.0508L0.0507812 32L14.0508 46H166.051L180 32.0508V14.0508L166 0.0507812L166.051 0H14.0508L14.1016 0.0507812L0.0507812 14.1016L0 14.0508Z" fill="#838B8D"/>
  <path d="M0 32.0508H-1V34.465L0.707107 32.7579L0 32.0508ZM0 14.0508L0.707107 13.3437L-1 11.6366V14.0508H0ZM0.0507812 32L0.757888 31.2929L0.0507812 30.5858L-0.656326 31.2929L0.0507812 32ZM14.0508 46L13.3437 46.7071L13.6366 47H14.0508V46ZM166.051 46V47H166.465L166.758 46.7071L166.051 46ZM180 32.0508L180.707 32.7579L181 32.465V32.0508H180ZM180 14.0508H181V13.6366L180.707 13.3437L180 14.0508ZM166 0.0507812L165.293 -0.656326L164.586 0.0507812L165.293 0.757888L166 0.0507812ZM166.051 0L166.758 0.707107L168.465 -1H166.051V0ZM14.0508 0V-1H11.6366L13.3437 0.707107L14.0508 0ZM14.1016 0.0507812L14.8087 0.757888L15.5158 0.0507812L14.8087 -0.656326L14.1016 0.0507812ZM0.0507812 14.1016L-0.656326 14.8087L0.0507812 15.5158L0.757888 14.8087L0.0507812 14.1016ZM1 32.0508V14.0508H-1V32.0508H1ZM0.707107 32.7579L0.757888 32.7071L-0.656326 31.2929L-0.707107 31.3437L0.707107 32.7579ZM-0.656326 32.7071L13.3437 46.7071L14.7579 45.2929L0.757888 31.2929L-0.656326 32.7071ZM166.051 45H14.0508V47H166.051V45ZM179.293 31.3437L165.344 45.2929L166.758 46.7071L180.707 32.7579L179.293 31.3437ZM179 14.0508V32.0508H181V14.0508H179ZM180.707 13.3437L166.707 -0.656326L165.293 0.757888L179.293 14.7579L180.707 13.3437ZM166.707 0.757888L166.758 0.707107L165.344 -0.707107L165.293 -0.656326L166.707 0.757888ZM14.0508 1H166.051V-1H14.0508V1ZM13.3437 0.707107L13.3945 0.757888L14.8087 -0.656326L14.7579 -0.707107L13.3437 0.707107ZM13.3945 -0.656326L-0.656326 13.3945L0.757888 14.8087L14.8087 0.757888L13.3945 -0.656326ZM0.757888 13.3945L0.707107 13.3437L-0.707107 14.7579L-0.656326 14.8087L0.757888 13.3945Z" fill="url(#paint0_linear_4747_1431)" mask="url(#path-1-inside-1_4747_1431)"/>
  <defs>
    <linearGradient id="paint0_linear_4747_1431" x1="14.5" y1="-1.81603e-06" x2="166.5" y2="46" gradientUnits="userSpaceOnUse">
      <stop stop-color="#E0E0E0"/>
      <stop offset="0.5" stop-color="#E0E0E0" stop-opacity="0"/>
      <stop offset="1" stop-color="#E0E0E0"/>
    </linearGradient>
  </defs>
</svg>