<svg xmlns="http://www.w3.org/2000/svg" width="502" height="28" viewBox="0 0 502 28" fill="none">
  <g filter="url(#filter0_d_3073_251)">
    <path d="M18.7227 8.10249C18.7227 10.4312 17.9485 12.3878 16.4002 13.9723C14.8519 15.5328 12.7319 16.313 10.0402 16.313H4.60921V25.6039H0V0.396121H10.5047C13.0773 0.396121 15.0901 1.12835 16.5431 2.5928C17.9962 4.05725 18.7227 5.89381 18.7227 8.10249ZM13.0416 10.9834C13.7085 10.3352 14.042 9.45891 14.042 8.35457C14.042 7.25023 13.7204 6.38597 13.0773 5.76177C12.458 5.11357 11.5528 4.78947 10.3618 4.78947H4.60921V11.9557H10.1831C11.4218 11.9557 12.3746 11.6316 13.0416 10.9834Z" fill="url(#paint0_linear_3073_251)"/>
    <path d="M38.7724 16.349C38.7724 19.3259 37.9268 21.6787 36.2355 23.4072C34.5681 25.1357 32.3648 26 29.6254 26C26.8861 26 24.6827 25.1357 23.0153 23.4072C21.3479 21.6787 20.5142 19.3259 20.5142 16.349C20.5142 13.3961 21.3479 11.0554 23.0153 9.32687C24.7066 7.59834 26.9099 6.73407 29.6254 6.73407C32.3409 6.73407 34.5443 7.61034 36.2355 9.36288C37.9268 11.0914 38.7724 13.4201 38.7724 16.349ZM25.052 16.349C25.052 18.1256 25.4688 19.494 26.3025 20.4543C27.1362 21.3906 28.2677 21.8587 29.6969 21.8587C31.1261 21.8587 32.2338 21.3786 33.0198 20.4183C33.8297 19.458 34.2346 18.1016 34.2346 16.349C34.2346 14.5725 33.8178 13.2161 32.9841 12.2798C32.1504 11.3435 31.0189 10.8753 29.5897 10.8753C28.1605 10.8753 27.0409 11.3555 26.2311 12.3158C25.445 13.2761 25.052 14.6205 25.052 16.349Z" fill="url(#paint1_linear_3073_251)"/>
    <path d="M53.6214 6.84211V11.1994H52.4423C49.2504 11.1994 47.6544 12.976 47.6544 16.5291V25.6039H43.2239V7.05817H47.6187V9.79501C48.5001 7.82641 50.096 6.84211 52.4066 6.84211H53.6214Z" fill="url(#paint2_linear_3073_251)"/>
    <path d="M67.315 21.6427V25.6039H64.4209C62.4676 25.6039 61.0384 25.1838 60.1333 24.3435C59.2281 23.4792 58.7755 21.8947 58.7755 19.59V11.0914H55.4169V7.05817H58.7755V2.88089L63.2061 1.65651V7.05817H66.8863V11.0914H63.2061V19.41C63.2061 20.1782 63.3609 20.7424 63.6706 21.1025C64.004 21.4626 64.5876 21.6427 65.4213 21.6427H67.315Z" fill="url(#paint3_linear_3073_251)"/>
    <path d="M86.2097 12.7479V25.6039H81.8863V22.903C80.6477 24.9677 78.7182 26 76.098 26C74.4782 26 73.0728 25.5439 71.8818 24.6316C70.7384 23.6953 70.1668 22.3149 70.1668 20.4903C70.1668 17.2733 72.12 15.3767 76.0265 14.8006L79.7425 14.2604C81.1717 14.0443 81.8863 13.3961 81.8863 12.3158C81.8863 11.6916 81.6005 11.2235 81.0288 10.9114C80.4809 10.5753 79.7544 10.4072 78.8492 10.4072C77.682 10.4072 76.7888 10.6353 76.1695 11.0914C75.574 11.5476 75.1571 12.2318 74.9189 13.144H70.7027C71.06 11.0554 71.9771 9.47091 73.4539 8.39058C74.9546 7.28624 76.8841 6.73407 79.2423 6.73407C81.4575 6.73407 83.1726 7.23823 84.3874 8.24654C85.6022 9.23084 86.2097 10.7313 86.2097 12.7479ZM81.7791 17.8255V16.8172C81.3503 16.9852 80.5643 17.1653 79.4209 17.3573L77.5629 17.6454C75.5859 17.9095 74.5973 18.7378 74.5973 20.1302C74.5973 21.5706 75.4787 22.2909 77.2414 22.2909C78.5991 22.2909 79.6829 21.8587 80.4928 20.9945C81.3503 20.1302 81.7791 19.0739 81.7791 17.8255Z" fill="url(#paint4_linear_3073_251)"/>
    <path d="M96.1904 0V25.6039H91.7599V0H96.1904Z" fill="url(#paint5_linear_3073_251)"/>
    <path d="M120.596 21.6427V25.6039H117.702C115.749 25.6039 114.32 25.1838 113.415 24.3435C112.509 23.4792 112.057 21.8947 112.057 19.59V11.0914H108.698V7.05817H112.057V2.88089L116.487 1.65651V7.05817H120.168V11.0914H116.487V19.41C116.487 20.1782 116.642 20.7424 116.952 21.1025C117.285 21.4626 117.869 21.6427 118.703 21.6427H120.596Z" fill="url(#paint6_linear_3073_251)"/>
    <path d="M141.706 16.349C141.706 19.3259 140.861 21.6787 139.17 23.4072C137.502 25.1357 135.299 26 132.559 26C129.82 26 127.617 25.1357 125.949 23.4072C124.282 21.6787 123.448 19.3259 123.448 16.349C123.448 13.3961 124.282 11.0554 125.949 9.32687C127.641 7.59834 129.844 6.73407 132.559 6.73407C135.275 6.73407 137.478 7.61034 139.17 9.36288C140.861 11.0914 141.706 13.4201 141.706 16.349ZM127.986 16.349C127.986 18.1256 128.403 19.494 129.236 20.4543C130.07 21.3906 131.202 21.8587 132.631 21.8587C134.06 21.8587 135.168 21.3786 135.954 20.4183C136.764 19.458 137.169 18.1016 137.169 16.349C137.169 14.5725 136.752 13.2161 135.918 12.2798C135.084 11.3435 133.953 10.8753 132.524 10.8753C131.094 10.8753 129.975 11.3555 129.165 12.3158C128.379 13.2761 127.986 14.6205 127.986 16.349Z" fill="url(#paint7_linear_3073_251)"/>
    <path d="M172.083 25.6039L170.011 20.0222H159.435L157.362 25.6039H152.432L162.15 0.396121H167.438L177.157 25.6039H172.083ZM161.043 15.6288H168.403L164.723 5.68975L161.043 15.6288Z" fill="url(#paint8_linear_3073_251)"/>
    <path d="M196.252 7.05817V25.6039H191.929V22.9751C190.738 24.8717 189.034 25.8199 186.819 25.8199C184.794 25.8199 183.187 25.1838 181.996 23.9114C180.805 22.639 180.209 20.8624 180.209 18.5817V7.05817H184.64V18.2576C184.64 20.6584 185.712 21.8587 187.855 21.8587C189.046 21.8587 189.999 21.3666 190.714 20.3823C191.452 19.398 191.821 17.9455 191.821 16.0249V7.05817H196.252Z" fill="url(#paint9_linear_3073_251)"/>
    <path d="M211.527 21.6427V25.6039H208.633C206.68 25.6039 205.251 25.1838 204.345 24.3435C203.44 23.4792 202.988 21.8947 202.988 19.59V11.0914H199.629V7.05817H202.988V2.88089L207.418 1.65651V7.05817H211.098V11.0914H207.418V19.41C207.418 20.1782 207.573 20.7424 207.883 21.1025C208.216 21.4626 208.8 21.6427 209.634 21.6427H211.527Z" fill="url(#paint10_linear_3073_251)"/>
    <path d="M232.637 16.349C232.637 19.3259 231.792 21.6787 230.1 23.4072C228.433 25.1357 226.23 26 223.49 26C220.751 26 218.548 25.1357 216.88 23.4072C215.213 21.6787 214.379 19.3259 214.379 16.349C214.379 13.3961 215.213 11.0554 216.88 9.32687C218.571 7.59834 220.775 6.73407 223.49 6.73407C226.206 6.73407 228.409 7.61034 230.1 9.36288C231.792 11.0914 232.637 13.4201 232.637 16.349ZM218.917 16.349C218.917 18.1256 219.334 19.494 220.167 20.4543C221.001 21.3906 222.132 21.8587 223.562 21.8587C224.991 21.8587 226.099 21.3786 226.885 20.4183C227.694 19.458 228.099 18.1016 228.099 16.349C228.099 14.5725 227.683 13.2161 226.849 12.2798C226.015 11.3435 224.884 10.8753 223.454 10.8753C222.025 10.8753 220.906 11.3555 220.096 12.3158C219.31 13.2761 218.917 14.6205 218.917 16.349Z" fill="url(#paint11_linear_3073_251)"/>
    <path d="M253.417 13.6482V25.6039H248.987V14.0443C248.987 12.988 248.689 12.1717 248.094 11.5956C247.498 11.0194 246.652 10.7313 245.557 10.7313C244.27 10.7313 243.27 11.1634 242.555 12.0277C241.865 12.868 241.519 14.0563 241.519 15.5928V25.6039H237.089V7.05817H241.483V9.759C242.698 7.74238 244.568 6.73407 247.093 6.73407C249.166 6.73407 250.738 7.33426 251.81 8.53463C252.881 9.71099 253.417 11.4155 253.417 13.6482Z" fill="url(#paint12_linear_3073_251)"/>
    <path d="M275.974 16.349C275.974 19.3259 275.129 21.6787 273.437 23.4072C271.77 25.1357 269.566 26 266.827 26C264.088 26 261.884 25.1357 260.217 23.4072C258.55 21.6787 257.716 19.3259 257.716 16.349C257.716 13.3961 258.55 11.0554 260.217 9.32687C261.908 7.59834 264.112 6.73407 266.827 6.73407C269.543 6.73407 271.746 7.61034 273.437 9.36288C275.129 11.0914 275.974 13.4201 275.974 16.349ZM262.254 16.349C262.254 18.1256 262.671 19.494 263.504 20.4543C264.338 21.3906 265.469 21.8587 266.899 21.8587C268.328 21.8587 269.435 21.3786 270.222 20.4183C271.031 19.458 271.436 18.1016 271.436 16.349C271.436 14.5725 271.02 13.2161 270.186 12.2798C269.352 11.3435 268.221 10.8753 266.791 10.8753C265.362 10.8753 264.243 11.3555 263.433 12.3158C262.647 13.2761 262.254 14.6205 262.254 16.349Z" fill="url(#paint13_linear_3073_251)"/>
    <path d="M306.652 13.108V25.6039H302.221V13.9723C302.221 11.8356 301.244 10.7673 299.291 10.7673C296.933 10.7673 295.754 12.2438 295.754 15.1967V25.6039H291.323V13.9723C291.323 11.8356 290.335 10.7673 288.358 10.7673C287.262 10.7673 286.404 11.1394 285.785 11.8837C285.166 12.6279 284.856 13.7202 284.856 15.1607V25.6039H280.426V7.05817H284.785V9.79501C285.595 7.75439 287.202 6.73407 289.608 6.73407C292.157 6.73407 293.872 7.75439 294.753 9.79501C295.849 7.75439 297.66 6.73407 300.184 6.73407C302.185 6.73407 303.758 7.29825 304.901 8.42659C306.068 9.55494 306.652 11.1154 306.652 13.108Z" fill="url(#paint14_linear_3073_251)"/>
    <path d="M329.186 16.349C329.186 19.3259 328.34 21.6787 326.649 23.4072C324.981 25.1357 322.778 26 320.039 26C317.299 26 315.096 25.1357 313.429 23.4072C311.761 21.6787 310.928 19.3259 310.928 16.349C310.928 13.3961 311.761 11.0554 313.429 9.32687C315.12 7.59834 317.323 6.73407 320.039 6.73407C322.754 6.73407 324.958 7.61034 326.649 9.36288C328.34 11.0914 329.186 13.4201 329.186 16.349ZM315.465 16.349C315.465 18.1256 315.882 19.494 316.716 20.4543C317.55 21.3906 318.681 21.8587 320.11 21.8587C321.539 21.8587 322.647 21.3786 323.433 20.4183C324.243 19.458 324.648 18.1016 324.648 16.349C324.648 14.5725 324.231 13.2161 323.397 12.2798C322.564 11.3435 321.432 10.8753 320.003 10.8753C318.574 10.8753 317.454 11.3555 316.644 12.3158C315.858 13.2761 315.465 14.6205 315.465 16.349Z" fill="url(#paint15_linear_3073_251)"/>
    <path d="M349.501 7.05817V25.6039H345.178V22.9751C343.987 24.8717 342.284 25.8199 340.069 25.8199C338.044 25.8199 336.436 25.1838 335.245 23.9114C334.054 22.639 333.459 20.8624 333.459 18.5817V7.05817H337.889V18.2576C337.889 20.6584 338.961 21.8587 341.105 21.8587C342.296 21.8587 343.249 21.3666 343.963 20.3823C344.702 19.398 345.071 17.9455 345.071 16.0249V7.05817H349.501Z" fill="url(#paint16_linear_3073_251)"/>
    <path d="M369.815 19.8421C369.815 21.8587 369.064 23.3832 367.564 24.4155C366.039 25.4718 364.193 26 362.026 26C359.858 26 357.976 25.4838 356.38 24.4515C354.784 23.4192 353.915 21.8227 353.772 19.6621H358.238C358.381 20.5263 358.798 21.1865 359.489 21.6427C360.203 22.0988 361.12 22.3269 362.24 22.3269C364.384 22.3269 365.456 21.6547 365.456 20.3103C365.456 19.7581 365.229 19.374 364.777 19.1579C364.348 18.9178 363.443 18.6777 362.061 18.4377C360.275 18.1256 358.929 17.8255 358.024 17.5374C355.57 16.7932 354.343 15.1607 354.343 12.6399C354.343 10.6473 355.034 9.17082 356.416 8.21053C357.821 7.22622 359.572 6.73407 361.668 6.73407C363.907 6.73407 365.718 7.28624 367.099 8.39058C368.505 9.47091 369.267 11.0074 369.386 13H365.063C364.872 11.2955 363.752 10.4432 361.704 10.4432C360.727 10.4432 359.977 10.6353 359.453 11.0194C358.929 11.3795 358.667 11.8717 358.667 12.4958C358.667 13.12 358.941 13.5642 359.489 13.8283C360.06 14.0923 361.073 14.3324 362.526 14.5485C364.098 14.7886 365.36 15.0406 366.313 15.3047C368.648 15.9769 369.815 17.4894 369.815 19.8421Z" fill="url(#paint17_linear_3073_251)"/>
    <path d="M414.223 0.396121L407.399 25.6039H402.825L397.323 7.20222L391.82 25.6039H387.211L380.387 0.396121H385.317L389.712 18.3657L395.108 0.396121H399.681L405.076 18.4017L409.471 0.396121H414.223Z" fill="url(#paint18_linear_3073_251)"/>
    <path d="M433.725 16.349C433.725 19.3259 432.879 21.6787 431.188 23.4072C429.521 25.1357 427.317 26 424.578 26C421.839 26 419.635 25.1357 417.968 23.4072C416.3 21.6787 415.467 19.3259 415.467 16.349C415.467 13.3961 416.3 11.0554 417.968 9.32687C419.659 7.59834 421.862 6.73407 424.578 6.73407C427.293 6.73407 429.497 7.61034 431.188 9.36288C432.879 11.0914 433.725 13.4201 433.725 16.349ZM420.004 16.349C420.004 18.1256 420.421 19.494 421.255 20.4543C422.089 21.3906 423.22 21.8587 424.649 21.8587C426.078 21.8587 427.186 21.3786 427.972 20.4183C428.782 19.458 429.187 18.1016 429.187 16.349C429.187 14.5725 428.77 13.2161 427.936 12.2798C427.103 11.3435 425.971 10.8753 424.542 10.8753C423.113 10.8753 421.993 11.3555 421.183 12.3158C420.397 13.2761 420.004 14.6205 420.004 16.349Z" fill="url(#paint19_linear_3073_251)"/>
    <path d="M448.574 6.84211V11.1994H447.395C444.203 11.1994 442.607 12.976 442.607 16.5291V25.6039H438.176V7.05817H442.571V9.79501C443.452 7.82641 445.048 6.84211 447.359 6.84211H448.574Z" fill="url(#paint20_linear_3073_251)"/>
    <path d="M456.773 0V25.6039H452.343V0H456.773Z" fill="url(#paint21_linear_3073_251)"/>
    <path d="M479.683 0V25.6039H475.324V22.759C474.824 23.7673 474.049 24.5596 473.001 25.1357C471.977 25.7119 470.81 26 469.5 26C467.094 26 465.117 25.1597 463.569 23.4792C462.02 21.7747 461.246 19.386 461.246 16.313C461.246 13.2881 462.02 10.9354 463.569 9.25485C465.117 7.57433 467.094 6.73407 469.5 6.73407C470.738 6.73407 471.87 6.98615 472.894 7.4903C473.918 7.97045 474.704 8.64266 475.252 9.50693V0H479.683ZM475.36 16.313C475.36 14.5365 474.883 13.156 473.93 12.1717C473.001 11.1874 471.87 10.6953 470.536 10.6953C469.131 10.6953 467.975 11.1994 467.07 12.2078C466.189 13.1921 465.748 14.5605 465.748 16.313C465.748 18.0416 466.189 19.41 467.07 20.4183C467.975 21.4026 469.131 21.8947 470.536 21.8947C471.87 21.8947 473.001 21.4026 473.93 20.4183C474.883 19.41 475.36 18.0416 475.36 16.313Z" fill="url(#paint22_linear_3073_251)"/>
    <path d="M500 19.8421C500 21.8587 499.25 23.3832 497.749 24.4155C496.225 25.4718 494.378 26 492.211 26C490.043 26 488.161 25.4838 486.565 24.4515C484.969 23.4192 484.1 21.8227 483.957 19.6621H488.423C488.566 20.5263 488.983 21.1865 489.674 21.6427C490.389 22.0988 491.306 22.3269 492.425 22.3269C494.569 22.3269 495.641 21.6547 495.641 20.3103C495.641 19.7581 495.415 19.374 494.962 19.1579C494.533 18.9178 493.628 18.6777 492.247 18.4377C490.46 18.1256 489.114 17.8255 488.209 17.5374C485.756 16.7932 484.529 15.1607 484.529 12.6399C484.529 10.6473 485.22 9.17082 486.601 8.21053C488.007 7.22622 489.757 6.73407 491.853 6.73407C494.093 6.73407 495.903 7.28624 497.285 8.39058C498.69 9.47091 499.452 11.0074 499.571 13H495.248C495.057 11.2955 493.938 10.4432 491.889 10.4432C490.913 10.4432 490.162 10.6353 489.638 11.0194C489.114 11.3795 488.852 11.8717 488.852 12.4958C488.852 13.12 489.126 13.5642 489.674 13.8283C490.246 14.0923 491.258 14.3324 492.711 14.5485C494.283 14.7886 495.546 15.0406 496.498 15.3047C498.833 15.9769 500 17.4894 500 19.8421Z" fill="url(#paint23_linear_3073_251)"/>
  </g>
  <defs>
    <filter id="filter0_d_3073_251" x="0" y="0" width="502" height="28" filterUnits="userSpaceOnUse" color-interpolation-filters="sRGB">
      <feFlood flood-opacity="0" result="BackgroundImageFix"/>
      <feColorMatrix in="SourceAlpha" type="matrix" values="0 0 0 0 0 0 0 0 0 0 0 0 0 0 0 0 0 0 127 0" result="hardAlpha"/>
      <feOffset dx="1" dy="1"/>
      <feGaussianBlur stdDeviation="0.5"/>
      <feComposite in2="hardAlpha" operator="out"/>
      <feColorMatrix type="matrix" values="0 0 0 0 0 0 0 0 0 0 0 0 0 0 0 0 0 0 0.6 0"/>
      <feBlend mode="normal" in2="BackgroundImageFix" result="effect1_dropShadow_3073_251"/>
      <feBlend mode="normal" in="SourceGraphic" in2="effect1_dropShadow_3073_251" result="shape"/>
    </filter>
    <linearGradient id="paint0_linear_3073_251" x1="166.924" y1="-2.08859e-06" x2="166.924" y2="32.5" gradientUnits="userSpaceOnUse">
      <stop offset="0.015" stop-color="#999999"/>
      <stop offset="0.225" stop-color="white"/>
    </linearGradient>
    <linearGradient id="paint1_linear_3073_251" x1="166.924" y1="-2.08859e-06" x2="166.924" y2="32.5" gradientUnits="userSpaceOnUse">
      <stop offset="0.015" stop-color="#999999"/>
      <stop offset="0.225" stop-color="white"/>
    </linearGradient>
    <linearGradient id="paint2_linear_3073_251" x1="166.924" y1="-2.08859e-06" x2="166.924" y2="32.5" gradientUnits="userSpaceOnUse">
      <stop offset="0.015" stop-color="#999999"/>
      <stop offset="0.225" stop-color="white"/>
    </linearGradient>
    <linearGradient id="paint3_linear_3073_251" x1="166.924" y1="-2.08859e-06" x2="166.924" y2="32.5" gradientUnits="userSpaceOnUse">
      <stop offset="0.015" stop-color="#999999"/>
      <stop offset="0.225" stop-color="white"/>
    </linearGradient>
    <linearGradient id="paint4_linear_3073_251" x1="166.924" y1="-2.08859e-06" x2="166.924" y2="32.5" gradientUnits="userSpaceOnUse">
      <stop offset="0.015" stop-color="#999999"/>
      <stop offset="0.225" stop-color="white"/>
    </linearGradient>
    <linearGradient id="paint5_linear_3073_251" x1="166.924" y1="-2.08859e-06" x2="166.924" y2="32.5" gradientUnits="userSpaceOnUse">
      <stop offset="0.015" stop-color="#999999"/>
      <stop offset="0.225" stop-color="white"/>
    </linearGradient>
    <linearGradient id="paint6_linear_3073_251" x1="166.924" y1="-2.08859e-06" x2="166.924" y2="32.5" gradientUnits="userSpaceOnUse">
      <stop offset="0.015" stop-color="#999999"/>
      <stop offset="0.225" stop-color="white"/>
    </linearGradient>
    <linearGradient id="paint7_linear_3073_251" x1="166.924" y1="-2.08859e-06" x2="166.924" y2="32.5" gradientUnits="userSpaceOnUse">
      <stop offset="0.015" stop-color="#999999"/>
      <stop offset="0.225" stop-color="white"/>
    </linearGradient>
    <linearGradient id="paint8_linear_3073_251" x1="166.924" y1="-2.08859e-06" x2="166.924" y2="32.5" gradientUnits="userSpaceOnUse">
      <stop offset="0.015" stop-color="#999999"/>
      <stop offset="0.225" stop-color="white"/>
    </linearGradient>
    <linearGradient id="paint9_linear_3073_251" x1="166.924" y1="-2.08859e-06" x2="166.924" y2="32.5" gradientUnits="userSpaceOnUse">
      <stop offset="0.015" stop-color="#999999"/>
      <stop offset="0.225" stop-color="white"/>
    </linearGradient>
    <linearGradient id="paint10_linear_3073_251" x1="166.924" y1="-2.08859e-06" x2="166.924" y2="32.5" gradientUnits="userSpaceOnUse">
      <stop offset="0.015" stop-color="#999999"/>
      <stop offset="0.225" stop-color="white"/>
    </linearGradient>
    <linearGradient id="paint11_linear_3073_251" x1="166.924" y1="-2.08859e-06" x2="166.924" y2="32.5" gradientUnits="userSpaceOnUse">
      <stop offset="0.015" stop-color="#999999"/>
      <stop offset="0.225" stop-color="white"/>
    </linearGradient>
    <linearGradient id="paint12_linear_3073_251" x1="166.924" y1="-2.08859e-06" x2="166.924" y2="32.5" gradientUnits="userSpaceOnUse">
      <stop offset="0.015" stop-color="#999999"/>
      <stop offset="0.225" stop-color="white"/>
    </linearGradient>
    <linearGradient id="paint13_linear_3073_251" x1="166.924" y1="-2.08859e-06" x2="166.924" y2="32.5" gradientUnits="userSpaceOnUse">
      <stop offset="0.015" stop-color="#999999"/>
      <stop offset="0.225" stop-color="white"/>
    </linearGradient>
    <linearGradient id="paint14_linear_3073_251" x1="166.924" y1="-2.08859e-06" x2="166.924" y2="32.5" gradientUnits="userSpaceOnUse">
      <stop offset="0.015" stop-color="#999999"/>
      <stop offset="0.225" stop-color="white"/>
    </linearGradient>
    <linearGradient id="paint15_linear_3073_251" x1="166.924" y1="-2.08859e-06" x2="166.924" y2="32.5" gradientUnits="userSpaceOnUse">
      <stop offset="0.015" stop-color="#999999"/>
      <stop offset="0.225" stop-color="white"/>
    </linearGradient>
    <linearGradient id="paint16_linear_3073_251" x1="166.924" y1="-2.08859e-06" x2="166.924" y2="32.5" gradientUnits="userSpaceOnUse">
      <stop offset="0.015" stop-color="#999999"/>
      <stop offset="0.225" stop-color="white"/>
    </linearGradient>
    <linearGradient id="paint17_linear_3073_251" x1="166.924" y1="-2.08859e-06" x2="166.924" y2="32.5" gradientUnits="userSpaceOnUse">
      <stop offset="0.015" stop-color="#999999"/>
      <stop offset="0.225" stop-color="white"/>
    </linearGradient>
    <linearGradient id="paint18_linear_3073_251" x1="166.924" y1="-2.08859e-06" x2="166.924" y2="32.5" gradientUnits="userSpaceOnUse">
      <stop offset="0.015" stop-color="#999999"/>
      <stop offset="0.225" stop-color="white"/>
    </linearGradient>
    <linearGradient id="paint19_linear_3073_251" x1="166.924" y1="-2.08859e-06" x2="166.924" y2="32.5" gradientUnits="userSpaceOnUse">
      <stop offset="0.015" stop-color="#999999"/>
      <stop offset="0.225" stop-color="white"/>
    </linearGradient>
    <linearGradient id="paint20_linear_3073_251" x1="166.924" y1="-2.08859e-06" x2="166.924" y2="32.5" gradientUnits="userSpaceOnUse">
      <stop offset="0.015" stop-color="#999999"/>
      <stop offset="0.225" stop-color="white"/>
    </linearGradient>
    <linearGradient id="paint21_linear_3073_251" x1="166.924" y1="-2.08859e-06" x2="166.924" y2="32.5" gradientUnits="userSpaceOnUse">
      <stop offset="0.015" stop-color="#999999"/>
      <stop offset="0.225" stop-color="white"/>
    </linearGradient>
    <linearGradient id="paint22_linear_3073_251" x1="166.924" y1="-2.08859e-06" x2="166.924" y2="32.5" gradientUnits="userSpaceOnUse">
      <stop offset="0.015" stop-color="#999999"/>
      <stop offset="0.225" stop-color="white"/>
    </linearGradient>
    <linearGradient id="paint23_linear_3073_251" x1="166.924" y1="-2.08859e-06" x2="166.924" y2="32.5" gradientUnits="userSpaceOnUse">
      <stop offset="0.015" stop-color="#999999"/>
      <stop offset="0.225" stop-color="white"/>
    </linearGradient>
  </defs>
</svg>